# AST/ASF file generated using VICON BodyLanguage
# -----------------------------------------------
:version 1.10
:name VICON
:units
  mass 1.0
  length 0.45
  angle deg
:documentation
   .ast/.asf automatically generated from VICON data using
   VICON BodyBuilder and BodyLanguage model FoxedUp or BRILLIANT.MOD
:root
   order TX TY TZ RX RY RZ
   axis XYZ
   position 0 0 0  
   orientation 0 0 0 
:bonedata
  begin
     id 1 
     name lhipjoint
     direction 0.528046 -0.759594 0.379717 
     length 2.39752 
     axis 0 0 0  XYZ
  end
  begin
     id 2 
     name lfemur
     direction 0.34202 -0.939693 0  
     length 7.31175  
     axis 0 0 20  XYZ
    dof rx ry rz
    limits (-160.0 20.0)
           (-70.0 70.0)
           (-60.0 70.0)
  end
  begin
     id 3 
     name ltibia
     direction 0.34202 -0.939693 0   
     length 7.52482   
     axis 0 0 20   XYZ
    dof rx
    limits (-10.0 170.0)
  end
  begin
     id 4 
     name lfoot
     direction 0.0675379 -0.185559 0.980309   
     length 2.00961   
     axis -90 7.62852e-016 20   XYZ
    dof rx rz
    limits (-45.0 90.0)
           (-70.0 20.0)
  end
  begin
     id 5 
     name ltoes
     direction 1.5352e-011 -4.22286e-011 1   
     length 1.01383   
     axis -90 7.62852e-016 20   XYZ
    dof rx
    limits (-90.0 20.0)
  end
  begin
     id 6 
     name rhipjoint
     direction -0.510274 -0.769251 0.384544   
     length 2.36742  
     axis 0 0 0  XYZ 
  end
  begin
     id 7 
     name rfemur
     direction -0.34202 -0.939693 0   
     length 7.45325   
     axis 0 0 -20   XYZ
    dof rx ry rz
    limits (-160.0 20.0)
           (-70.0 70.0)
           (-70.0 60.0)
  end
  begin
     id 8 
     name rtibia
     direction -0.34202 -0.939693 0   
     length 7.49587   
     axis 0 0 -20   XYZ
    dof rx
    limits (-10.0 170.0)
 end
 begin
     id 9 
     name rfoot
     direction -0.106475 -0.292536 0.950308   
     length 2.20898  
     axis -90 -7.62852e-016 -20   XYZ
    dof rx rz
    limits (-45.0 90.0)
           (-20.0 70.0)
  end
  begin
     id 10 
     name rtoes
     direction -1.53597e-011 -4.22023e-011 1   
     length 1.10065   
     axis -90 -7.62852e-016 -20   XYZ
    dof rx
    limits (-90.0 20.0)
  end
  begin
     id 11 
     name lowerback
     direction 0.0260024 0.998026 -0.0571652   
     length 2.11214   
     axis 0 0 0   XYZ
    dof rx ry rz
    limits (-20.0 45.0)
           (-30.0 30.0)
           (-30.0 30.0)
  end
  begin
     id 12 
     name upperback
     direction 0.0216202 0.999542 -0.0211766   
     length 2.11689   
     axis 0 0 0   XYZ
    dof rx ry rz
    limits (-20.0 45.0)
           (-30.0 30.0)
           (-30.0 30.0)
  end
  begin
     id 13 
     name thorax
     direction 0.00883312 0.999944 0.00589057   
     length 2.11821   
     axis 0 0 0   XYZ
    dof rx ry rz
    limits (-20.0 45.0)
           (-30.0 30.0)
           (-30.0 30.0)
  end
  begin
     id 14 
     name lowerneck
     direction -0.059386 0.994433 0.0870401   
     length 1.81176   
     axis 0 0 0   XYZ
    dof rx ry rz
    limits (-20.0 45.0)
           (-30.0 30.0)
           (-30.0 30.0)
  end
  begin
     id 15 
     name upperneck
     direction 0.0506457 0.97328 -0.223967   
     length 1.82382   
     axis 0 0 0   XYZ
    dof rx ry rz
    limits (-20.0 45.0)
           (-30.0 30.0)
           (-30.0 30.0)
  end
  begin
     id 16
     name head
     direction 0.0205902 0.996147 -0.0852487  
     length 1.84805  
     axis 0 0 0   XYZ
    dof rx ry rz
    limits (-20.0 45.0)
           (-30.0 30.0)
           (-30.0 30.0)
  end
  begin
     id 17 
     name lclavicle
     direction 0.949493 0.303881 -0.0782325  
     length 3.60584  
     axis 0 0 0   XYZ
    dof ry rz
    limits (-20.0 10.0)
           (0.0 20.0)
  end
  begin
     id 18 
     name lhumerus
     direction 1 -4.48965e-011 1.48782e-027   
     length 4.95681   
     axis 180 -30 -90   XYZ
    dof rx ry rz
    limits (-60.0 90.0)
           (-90.0 90.0)
           (-90.0 90.0)
  end
  begin
     id 19
     name lradius
     direction 1 -4.48952e-011 2.06528e-027   
     length 3.40915   
     axis 180 -30 -90   XYZ
    dof rx
    limits (-10.0 170.0)
  end
  begin
     id 20
     name lwrist
     direction 1 -4.48964e-011 1.28021e-027   
     length 1.70457   
     axis -1.61767e-015 90 90   XYZ
    dof ry
    limits (-180.0 0.0)
 end
  begin
     id 21 
     name lhand
     direction 1 -4.49094e-011 2.54887e-027   
     length 0.616403   
     axis -1.63363e-015 90 90   XYZ
    dof rx rz
    limits (-90.0 90.0)
           (-45.0 45.0)
  end
  begin
     id 22 
     name lfingers
     direction 1 -4.49002e-011 5.11407e-027   
     length 0.49696   
     axis -3.26723e-015 90 90   XYZ
    dof rx
    limits (0.0 90.0)
  end
  begin
     id 23
     name lthumb
     direction 0.707107 -6.34998e-011 0.707107   
     length 0.713539   
     axis -90 45 -2.25915e-014   XYZ
    dof rx rz
    limits (-45.0 45.0)
           (-45.0 45.0)
  end
  begin
     id 24 
     name rclavicle
     direction -0.937751 0.334612 -0.0930482   
     length 3.46287  
     axis 0 0 0   XYZ 
    dof ry rz
    limits (-10.0 20.0)
           (-20.0 0.0)
  end
  begin
     id 25 
     name rhumerus
     direction -1 -4.48962e-011 3.59972e-027  
     length 5.352   
     axis 180 30 90   XYZ
    dof rx ry rz
    limits (-90.0 60.0)
           (-90.0 90.0)
           (-90.0 90.0)
  end
  begin
     id 26 
     name rradius
     direction -1 -4.48987e-011 -3.76925e-027   
     length 3.43721   
     axis 180 30 90   XYZ
    dof rx
    limits (-10.0 170.0)
  end
  begin
     id 27 
     name rwrist
     direction -1 -4.48943e-011 1.28112e-027   
     length 1.7186   
     axis -1.61767e-015 -90 -90   XYZ
    dof ry
    limits (-180.0 0.0)
  end
  begin
     id 28
     name rhand
     direction -1 -4.49027e-011 2.55483e-027   
     length 0.72009   
     axis -1.63363e-015 -90 -90   XYZ
    dof rx rz
    limits (-90.0 90.0)
           (-45.0 45.0)
  end
  begin
     id 29
     name rfingers
     direction -1 -4.48827e-011 5.14506e-027   
     length 0.580555   
     axis -3.26723e-015 -90 -90   XYZ
    dof rx
    limits (0.0 90.0)
  end
  begin
     id 30
     name rthumb
     direction -0.707107 -6.34936e-011 0.707107   
     length 0.833564   
     axis -90 -45 2.25915e-014   XYZ
    dof rx rz
    limits (-45.0 45.0)
           (-45.0 45.0)
  end
:hierarchy
  begin
    root lhipjoint rhipjoint lowerback
    lhipjoint lfemur
    lfemur ltibia
    ltibia lfoot
    lfoot ltoes
    rhipjoint rfemur
    rfemur rtibia
    rtibia rfoot
    rfoot rtoes
    lowerback upperback
    upperback thorax
    thorax lowerneck lclavicle rclavicle
    lowerneck upperneck
    upperneck head
    lclavicle lhumerus
    lhumerus lradius
    lradius lwrist
    lwrist lhand lthumb
    lhand lfingers
    rclavicle rhumerus
    rhumerus rradius
    rradius rwrist
    rwrist rhand rthumb
    rhand rfingers
  end

#!OML:ASF H:\Terrain\Patient Classification 1\Terrain2\Thursday\justin.ASF
:FULLY-SPECIFIED
:DEGREES
1062
root -10.7945 17.3112 -11.5026 16.4666 -80.7285 -377.807
lowerback 5.06633 0.785248 2.88921
upperback 1.29412 1.18894 3.28801
thorax -1.51902 0.559445 1.68674
lowerneck -11.6728 0.450241 -7.78756
upperneck 38.9812 0.302971 2.61483
head 15.7088 -1.18701 2.42716
rclavicle 2.38045e-014 2.06736e-014
rhumerus -23.6997 3.51355 -83.1807
rradius 49.871
rwrist -17.5739
rhand -21.6053 8.40718
rfingers 7.12502
rthumb 4.78991 -21.5187
lclavicle 2.38045e-014 2.06736e-014
lhumerus -38.3659 4.52028 87.3883
lradius 33.8407
lwrist 2.89716
lhand -19.4949 21.5105
lfingers 7.12502
lthumb 6.82741 51.3804
rfemur -9.55039 -6.37673 27.3496
rtibia 31.3484
rfoot -17.1638 -1.44862
rtoes 3.083
lfemur -12.2247 12.8588 -15.247
ltibia 40.9146
lfoot -13.9497 13.4867
ltoes -8.205
1063
root -10.8192 17.3131 -11.4985 16.7028 -80.0703 -377.993
lowerback 4.88481 0.552317 2.79573
upperback 1.22298 0.868366 3.53074
thorax -1.49316 0.398303 2.01114
lowerneck -11.8901 0.410922 -7.93959
upperneck 39.2364 0.329483 2.51614
head 15.8948 -1.22624 2.42117
rclavicle -2.0773e-014 -9.54166e-015
rhumerus -23.6471 3.39384 -82.94
rradius 49.5243
rwrist -17.3421
rhand -20.4374 7.87027
rfingers 7.12502
rthumb 5.91755 -22.0271
lclavicle -2.0773e-014 -9.54166e-015
lhumerus -38.2643 4.73261 87.3277
lradius 33.7569
lwrist 2.87175
lhand -21.8299 22.4564
lfingers 7.12502
lthumb 4.57306 52.387
rfemur -9.59544 -6.36793 27.592
rtibia 31.5172
rfoot -17.4126 -1.94658
rtoes 2.76953
lfemur -11.6704 13.1901 -15.1326
ltibia 40.0393
lfoot -14.4957 13.2923
ltoes -6.15802
1064
root -10.8395 17.3083 -11.4913 16.4512 -79.2948 -377.683
lowerback 4.66593 0.255353 2.91843
upperback 1.16661 0.470005 3.58286
thorax -1.42212 0.199207 2.02093
lowerneck -11.9803 0.405398 -7.90247
upperneck 39.33 0.335379 2.45515
head 15.966 -1.23275 2.39066
rclavicle 4.49253e-014 1.66979e-014
rhumerus -23.6646 3.37717 -82.9679
rradius 49.2559
rwrist -17.2196
rhand -20.3389 7.5567
rfingers 7.12502
rthumb 6.0126 -22.338
lclavicle 4.49253e-014 1.66979e-014
lhumerus -38.3769 3.31396 88.2978
lradius 33.8336
lwrist 0.562613
lhand -21.4742 24.8214
lfingers 7.12502
lthumb 4.91644 54.7444
rfemur -9.73436 -6.65431 27.7993
rtibia 31.7899
rfoot -16.8177 -3.25458
rtoes -9.81198
lfemur -11.2225 12.9557 -15.0575
ltibia 39.0532
lfoot -14.3954 13.5972
ltoes -13.5957
1065
root -10.8597 17.3075 -11.4851 16.1121 -78.5846 -377.27
lowerback 4.47413 0.00502337 2.90674
upperback 1.09319 0.130119 3.64207
thorax -1.38576 0.0297013 2.10815
lowerneck -11.8466 0.389829 -7.92254
upperneck 39.1912 0.279023 2.53131
head 15.8641 -1.24286 2.41486
rclavicle -2.93207e-015 4.77083e-015
rhumerus -23.7135 3.07802 -83.0446
rradius 48.896
rwrist -17.1249
rhand -21.6013 7.56343
rfingers 7.12502
rthumb 4.79371 -22.3623
lclavicle -2.93207e-015 4.77083e-015
lhumerus -38.1305 3.70567 87.846
lradius 33.796
lwrist 1.85367
lhand -20.2929 22.8091
lfingers 7.12502
lthumb 6.05706 52.7025
rfemur -9.91891 -6.95932 27.9555
rtibia 32.1526
rfoot -16.1781 -4.65168
rtoes -23.3955
lfemur -10.77 12.4574 -15.0269
ltibia 37.9519
lfoot -15.0383 13.546
ltoes -11.8226
1066
root -10.8814 17.3149 -11.479 14.2945 -78.0261 -375.398
lowerback 4.34587 -0.130276 2.44855
upperback 1.05369 -0.0720719 3.64691
thorax -1.35132 -0.0683943 2.38098
lowerneck -11.7269 0.3584 -8.01469
upperneck 39.0307 0.218364 2.63726
head 15.7559 -1.25784 2.46456
rclavicle 1.98288e-014 9.54166e-015
rhumerus -23.803 2.60851 -83.0015
rradius 48.596
rwrist -17.6045
rhand -23.0849 7.24608
rfingers 7.12502
rthumb 3.3611 -22.7072
lclavicle 1.98288e-014 9.54166e-015
lhumerus -37.9313 3.20811 87.88
lradius 33.7623
lwrist 2.42459
lhand -19.4631 21.5702
lfingers 7.12502
lthumb 6.85813 51.4392
rfemur -10.0586 -7.26778 27.6429
rtibia 32.5679
rfoot -17.6094 -3.542
rtoes -4.41675
lfemur -10.2375 12.1276 -15.3781
ltibia 36.828
lfoot -15.1365 13.9202
ltoes -15.4058
1067
root -10.9003 17.3104 -11.4713 12.3082 -77.384 -373.387
lowerback 4.25264 -0.33499 2.03068
upperback 1.03834 -0.36407 3.62934
thorax -1.30584 -0.211708 2.61261
lowerneck -11.5821 0.442777 -8.08043
upperneck 38.8174 0.366544 2.64771
head 15.6002 -1.19104 2.49996
rclavicle 7.95139e-015 -3.02153e-014
rhumerus -23.9146 2.23088 -82.9835
rradius 48.4325
rwrist -18.1979
rhand -23.4019 7.1778
rfingers 7.12502
rthumb 3.055 -22.7801
lclavicle 7.95139e-015 -3.02153e-014
lhumerus -37.8346 2.60957 88.0449
lradius 33.8992
lwrist 2.33879
lhand -19.0867 21.4069
lfingers 7.12502
lthumb 7.2215 51.2637
rfemur -10.1811 -7.45477 27.2859
rtibia 32.992
rfoot -17.472 -3.96705
rtoes -6.11792
lfemur -9.73008 11.6742 -15.7474
ltibia 35.789
lfoot -14.8932 14.1566
ltoes -19.1062
